# Blender 3.6.23
# www.blender.org
mtllib 2D_player.mtl
o Player
v 1.999999 6.750000 0.108506
v 1.999999 6.750000 0.208506
v 1.999999 13.500000 0.108506
v 1.999999 13.500000 0.208506
v 4.000000 13.500000 0.208506
v 4.000000 13.500000 0.108506
v 1.999999 13.500000 0.108506
v 1.999999 13.500000 0.208506
v 4.000000 6.750000 0.208506
v 4.000000 6.750000 0.108506
v 1.999999 6.750000 0.108506
v 1.999999 6.750000 0.208506
v 1.999999 0.000000 0.108506
v 1.999999 0.000000 0.208506
v 1.999999 6.750000 0.108506
v 1.999999 6.750000 0.208506
v 1.999999 13.500000 0.058506
v 1.999999 13.500000 0.258506
v 1.999999 17.500000 0.058506
v 1.999999 17.500000 0.258506
v -2.000000 6.750000 0.208507
v -2.000000 6.750000 0.108507
v -2.000000 13.500000 0.208507
v -2.000000 13.500000 0.108507
v -2.000000 6.750000 0.208507
v -2.000000 6.750000 0.108507
v -4.000000 6.750000 0.108507
v -4.000000 6.750000 0.208507
v -2.000000 13.500000 0.208507
v -2.000000 13.500000 0.108507
v -4.000000 13.500000 0.108507
v -4.000000 13.500000 0.208507
v -0.000001 0.000000 0.208506
v -0.000001 0.000000 0.108506
v -0.000001 6.750000 0.108506
v -0.000001 6.750000 0.208506
v -2.000000 13.500000 0.258507
v -2.000000 13.500000 0.058507
v -2.000000 17.500000 0.258507
v -2.000000 17.500000 0.058507
v -2.000000 6.750000 0.208507
v -2.000000 6.750000 0.108507
v -2.000000 0.000000 0.208507
v -2.000000 0.000000 0.108507
v -0.000001 0.000000 0.208506
v -0.000001 0.000000 0.108506
v -0.000001 6.750000 0.108506
v -0.000001 6.750000 0.208506
v 2.200000 13.302996 0.048506
v 2.200000 13.302996 0.268506
v 2.200000 17.702990 0.048506
v 2.200000 17.702990 0.268506
v -2.200001 13.302996 0.268507
v -2.200001 13.302996 0.048507
v -2.200001 17.702990 0.268507
v -2.200001 17.702990 0.048507
v 1.999999 6.750000 0.090286
v 1.999999 13.500000 0.090286
v -2.000000 6.750000 0.090287
v -2.000000 13.500000 0.090287
v -2.000000 13.500000 0.108507
v -2.000000 6.750000 0.108507
v 1.999999 6.750000 0.108506
v 1.999999 13.500000 0.108506
v -2.200001 13.700001 0.098507
v -2.200001 6.600000 0.098507
v -2.200001 6.600000 0.218507
v -2.200001 13.700001 0.218507
v 2.200000 13.700001 0.218506
v 2.200000 13.700001 0.098506
v 2.200000 6.600000 0.098506
v 2.200000 6.600000 0.218506
v -2.300000 17.799999 0.043507
v -2.300000 13.200001 0.043507
v -2.300000 13.200001 0.273507
v -2.300000 17.799999 0.273507
v 2.299999 17.799999 0.273506
v 2.299999 17.799999 0.043506
v 2.299999 13.200001 0.043506
v 2.299999 13.200001 0.273506
v 1.799999 6.500000 0.223506
v 1.799999 6.500000 0.093506
v 4.299999 6.500000 0.093506
v 4.299999 6.500000 0.223506
v 4.299999 13.799999 0.223506
v 4.299999 13.799999 0.093506
v 1.799999 13.799999 0.093506
v 1.799999 13.799999 0.223506
v -1.800001 13.799999 0.093507
v -1.800001 6.500000 0.093507
v -4.300000 6.500000 0.093507
v -4.300000 13.799999 0.093507
v -1.800001 13.799999 0.223507
v -1.800001 6.500000 0.223507
v -4.300000 13.799999 0.223507
v -4.300000 6.500000 0.223507
v -2.200001 6.900000 0.223507
v 0.199999 6.900000 0.223506
v 0.199999 6.900000 0.093506
v -2.200001 6.900000 0.093507
v 0.199999 -0.100000 0.223506
v -2.200001 -0.100000 0.223507
v -2.200001 -0.100000 0.093507
v 0.199999 -0.100000 0.093506
v 2.200000 6.900000 0.223506
v 2.200000 6.900000 0.093506
v -0.200001 6.900000 0.093506
v -0.200001 6.900000 0.223506
v -0.200001 -0.100000 0.093506
v -0.200001 -0.100000 0.223506
v 2.200000 -0.100000 0.223506
v 2.200000 -0.100000 0.093506
v -0.400001 -0.200001 0.233506
v -0.400001 -0.199999 0.083506
v 2.400000 -0.199999 0.083506
v 2.400000 -0.200001 0.233506
v 2.400000 3.375000 0.083506
v 2.400000 3.375000 0.233506
v -0.400001 3.375000 0.083506
v -0.400001 3.375000 0.233506
v 0.399999 3.375000 0.233506
v 0.399999 -0.200001 0.233506
v 0.399999 -0.199999 0.083506
v 0.399999 3.375000 0.083506
v -2.400001 3.375000 0.233507
v -2.400001 -0.200001 0.233507
v -2.400001 -0.199999 0.083507
v -2.400001 3.375000 0.083507
v -2.000000 13.500000 0.208507
v -2.000000 13.500000 0.208507
v -2.000000 13.500000 0.108507
v -2.000000 13.500000 0.108507
v -2.000000 6.750000 0.108507
v -2.000000 6.750000 0.108507
v -2.000000 6.750000 0.208507
v -2.000000 6.750000 0.208507
v 1.999999 13.500000 0.108506
v 1.999999 13.500000 0.108506
v 1.999999 6.750000 0.108506
v 1.999999 6.750000 0.108506
v 1.999999 13.500000 0.208506
v 1.999999 13.500000 0.208506
v 1.999999 6.750000 0.208506
v 1.999999 6.750000 0.208506
v 4.000000 13.500000 0.208506
v 4.000000 13.500000 0.208506
v 4.000000 6.750000 0.208506
v 4.000000 6.750000 0.208506
v 1.999999 13.500000 0.108506
v 1.999999 13.500000 0.108506
v 1.999999 6.750000 0.108506
v 1.999999 6.750000 0.108506
v 4.000000 13.500000 0.108506
v 4.000000 13.500000 0.108506
v 4.000000 6.750000 0.108506
v 4.000000 6.750000 0.108506
v 1.999999 13.500000 0.208506
v 1.999999 13.500000 0.208506
v 1.999999 6.750000 0.208506
v 1.999999 6.750000 0.208506
v -0.000001 0.000000 0.108506
v -0.000001 0.000000 0.108506
v -0.000001 0.000000 0.208506
v -0.000001 0.000000 0.208506
v 1.999999 0.000000 0.108506
v 1.999999 0.000000 0.108506
v 1.999999 6.750000 0.108506
v 1.999999 6.750000 0.108506
v 1.999999 6.750000 0.208506
v 1.999999 6.750000 0.208506
v 1.999999 0.000000 0.208506
v 1.999999 0.000000 0.208506
v -2.000000 17.500000 0.258507
v -2.000000 17.500000 0.258507
v -2.000000 17.500000 0.058507
v -2.000000 17.500000 0.058507
v -2.000000 13.500000 0.058507
v -2.000000 13.500000 0.058507
v -2.000000 13.500000 0.258507
v -2.000000 13.500000 0.258507
v 1.999999 17.500000 0.058506
v 1.999999 17.500000 0.058506
v 1.999999 13.500000 0.058506
v 1.999999 13.500000 0.058506
v 1.999999 17.500000 0.258506
v 1.999999 17.500000 0.258506
v 1.999999 13.500000 0.258506
v 1.999999 13.500000 0.258506
v -2.000000 13.500000 0.208507
v -2.000000 13.500000 0.208507
v -2.000000 13.500000 0.108507
v -2.000000 13.500000 0.108507
v -2.000000 6.750000 0.108507
v -2.000000 6.750000 0.108507
v -2.000000 6.750000 0.208507
v -2.000000 6.750000 0.208507
v -4.000000 13.500000 0.108507
v -4.000000 13.500000 0.108507
v -4.000000 6.750000 0.108507
v -4.000000 6.750000 0.108507
v -4.000000 13.500000 0.208507
v -4.000000 13.500000 0.208507
v -4.000000 6.750000 0.208507
v -4.000000 6.750000 0.208507
v -0.000001 6.750000 0.108506
v -0.000001 6.750000 0.108506
v -0.000001 6.750000 0.108506
v -0.000001 6.750000 0.108506
v -2.000000 6.750000 0.108507
v -2.000000 6.750000 0.108507
v -0.000001 0.000000 0.108506
v -0.000001 0.000000 0.108506
v -0.000001 6.750000 0.208506
v -0.000001 6.750000 0.208506
v -2.000000 0.000000 0.108507
v -2.000000 0.000000 0.108507
v -0.000001 0.000000 0.208506
v -0.000001 0.000000 0.208506
v -2.000000 0.000000 0.208507
v -2.000000 0.000000 0.208507
v -2.000000 6.750000 0.208507
v -2.000000 6.750000 0.208507
v -0.000001 6.750000 0.208506
v -0.000001 6.750000 0.208506
v -2.200001 17.702990 0.268507
v -2.200001 17.702990 0.268507
v -2.200001 17.702990 0.048507
v -2.200001 17.702990 0.048507
v -2.200001 13.302996 0.048507
v -2.200001 13.302996 0.048507
v -2.200001 13.302996 0.268507
v -2.200001 13.302996 0.268507
v 2.200000 17.702990 0.048506
v 2.200000 17.702990 0.048506
v 2.200000 13.302996 0.048506
v 2.200000 13.302996 0.048506
v 2.200000 17.702990 0.268506
v 2.200000 17.702990 0.268506
v 2.200000 13.302996 0.268506
v 2.200000 13.302996 0.268506
v -2.000000 13.500000 0.090287
v -2.000000 13.500000 0.090287
v -2.000000 6.750000 0.090287
v -2.000000 6.750000 0.090287
v 1.999999 13.500000 0.090286
v 1.999999 13.500000 0.090286
v 1.999999 6.750000 0.090286
v 1.999999 6.750000 0.090286
v -2.000000 13.500000 0.108507
v -2.000000 13.500000 0.108507
v -2.000000 6.750000 0.108507
v -2.000000 6.750000 0.108507
v 1.999999 6.750000 0.108506
v 1.999999 6.750000 0.108506
v 1.999999 13.500000 0.108506
v 1.999999 13.500000 0.108506
v -1.800001 6.500000 0.223507
v -1.800001 6.500000 0.223507
v -4.300000 6.500000 0.223507
v -4.300000 6.500000 0.223507
v -1.800001 13.799999 0.093507
v -1.800001 13.799999 0.093507
v -1.800001 6.500000 0.093507
v -1.800001 6.500000 0.093507
v 0.399999 -0.199999 0.083506
v 0.399999 -0.199999 0.083506
v -2.400001 -0.199999 0.083507
v -2.400001 -0.199999 0.083507
v -1.800001 13.799999 0.223507
v -1.800001 13.799999 0.223507
v -2.300000 17.799999 0.043507
v -2.300000 17.799999 0.043507
v 2.299999 17.799999 0.043506
v 2.299999 17.799999 0.043506
v 2.200000 6.900000 0.223506
v 2.200000 6.900000 0.223506
v 2.200000 6.900000 0.093506
v 2.200000 6.900000 0.093506
v -0.200001 -0.100000 0.093506
v -0.200001 -0.100000 0.093506
v -0.200001 -0.100000 0.223506
v -0.200001 -0.100000 0.223506
v -2.300000 13.200001 0.043507
v -2.300000 13.200001 0.043507
v 2.299999 17.799999 0.273506
v 2.299999 17.799999 0.273506
v 0.199999 -0.100000 0.223506
v 0.199999 -0.100000 0.223506
v -2.200001 -0.100000 0.223507
v -2.200001 -0.100000 0.223507
v -2.200001 6.900000 0.223507
v -2.200001 6.900000 0.223507
v 2.200000 13.700001 0.218506
v 2.200000 13.700001 0.218506
v 2.200000 13.700001 0.098506
v 2.200000 13.700001 0.098506
v 2.400000 3.375000 0.233506
v 2.400000 3.375000 0.233506
v -0.400001 3.375000 0.233506
v -0.400001 3.375000 0.233506
v 4.299999 6.500000 0.223506
v 4.299999 6.500000 0.223506
v 4.299999 13.799999 0.223506
v 4.299999 13.799999 0.223506
v -2.200001 13.700001 0.098507
v -2.200001 13.700001 0.098507
v 0.199999 6.900000 0.223506
v 0.199999 6.900000 0.223506
v 2.400000 3.375000 0.083506
v 2.400000 3.375000 0.083506
v -2.200001 6.600000 0.098507
v -2.200001 6.600000 0.098507
v -0.200001 6.900000 0.093506
v -0.200001 6.900000 0.093506
v -4.300000 13.799999 0.223507
v -4.300000 13.799999 0.223507
v 0.399999 3.375000 0.083506
v 0.399999 3.375000 0.083506
v -2.400001 3.375000 0.083507
v -2.400001 3.375000 0.083507
v -0.400001 -0.200001 0.233506
v -0.400001 -0.200001 0.233506
v -0.400001 -0.199999 0.083506
v -0.400001 -0.199999 0.083506
v 2.200000 -0.100000 0.223506
v 2.200000 -0.100000 0.223506
v -2.300000 17.799999 0.273507
v -2.300000 17.799999 0.273507
v 0.399999 3.375000 0.233506
v 0.399999 3.375000 0.233506
v 0.399999 -0.200001 0.233506
v 0.399999 -0.200001 0.233506
v -2.200001 -0.100000 0.093507
v -2.200001 -0.100000 0.093507
v -2.400001 3.375000 0.233507
v -2.400001 3.375000 0.233507
v -2.400001 -0.200001 0.233507
v -2.400001 -0.200001 0.233507
v 1.799999 13.799999 0.223506
v 1.799999 13.799999 0.223506
v -2.200001 6.900000 0.093507
v -2.200001 6.900000 0.093507
v 1.799999 6.500000 0.223506
v 1.799999 6.500000 0.223506
v 1.799999 13.799999 0.093506
v 1.799999 13.799999 0.093506
v 0.199999 6.900000 0.093506
v 0.199999 6.900000 0.093506
v 4.299999 6.500000 0.093506
v 4.299999 6.500000 0.093506
v -0.400001 3.375000 0.083506
v -0.400001 3.375000 0.083506
v -2.200001 13.700001 0.218507
v -2.200001 13.700001 0.218507
v -4.300000 6.500000 0.093507
v -4.300000 6.500000 0.093507
v -0.200001 6.900000 0.223506
v -0.200001 6.900000 0.223506
v -4.300000 13.799999 0.093507
v -4.300000 13.799999 0.093507
v 2.400000 -0.199999 0.083506
v 2.400000 -0.199999 0.083506
v 2.200000 -0.100000 0.093506
v 2.200000 -0.100000 0.093506
v -2.300000 13.200001 0.273507
v -2.300000 13.200001 0.273507
v 2.299999 13.200001 0.273506
v 2.299999 13.200001 0.273506
v 0.199999 -0.100000 0.093506
v 0.199999 -0.100000 0.093506
v 4.299999 13.799999 0.093506
v 4.299999 13.799999 0.093506
v 2.299999 13.200001 0.043506
v 2.299999 13.200001 0.043506
v 1.799999 6.500000 0.093506
v 1.799999 6.500000 0.093506
v 2.200000 6.600000 0.218506
v 2.200000 6.600000 0.218506
v 2.200000 6.600000 0.098506
v 2.200000 6.600000 0.098506
v -2.200001 6.600000 0.218507
v -2.200001 6.600000 0.218507
v 2.400000 -0.200001 0.233506
v 2.400000 -0.200001 0.233506
vn -0.0000 -0.0000 -1.0000
vn 1.0000 -0.0000 -0.0000
vn -0.0000 -0.0000 1.0000
vn -0.0000 -1.0000 -0.0000
vn -0.0000 1.0000 -0.0000
vn -1.0000 -0.0000 -0.0000
vt 0.625000 0.375000
vt 0.500000 0.375000
vt 0.500000 0.000000
vt 0.625000 0.000000
vt 0.437500 0.375000
vt 0.437500 0.000000
vt 0.312500 0.375000
vt 0.312500 0.000000
vt 0.562500 0.375000
vt 0.562500 0.500000
vt 0.437500 0.500000
vt 0.312500 0.500000
vt 0.125000 0.375000
vt 0.125000 0.000000
vt 0.187500 0.000000
vt 0.187500 0.375000
vt 0.812500 0.375000
vt 0.875000 0.375000
vt 0.875000 0.000000
vt 0.812500 0.000000
vt 0.750000 0.375000
vt 0.750000 0.000000
vt 0.187500 0.500000
vt 0.125000 0.500000
vt 0.000000 0.375000
vt 0.062500 0.375000
vt 0.062500 0.000000
vt 0.000000 0.000000
vt 0.500000 0.750000
vt 0.375000 0.750000
vt 0.375000 0.500000
vt 0.500000 0.500000
vt 0.250000 0.750000
vt 0.250000 0.500000
vt 0.125000 0.750000
vt 0.375000 1.000000
vt 0.250000 1.000000
vt 0.125000 1.000000
vt 0.250000 0.375000
vt 0.250000 0.000000
vt 0.812500 0.500000
vt 0.750000 0.500000
vt 0.687500 0.375000
vt 0.687500 0.500000
vt 0.000000 0.750000
vt 0.000000 0.500000
vt 0.062500 0.500000
vt 0.687500 0.000000
vt 1.000000 0.750000
vt 0.875000 0.750000
vt 0.875000 0.500000
vt 1.000000 0.500000
vt 0.750000 0.750000
vt 0.625000 0.750000
vt 0.625000 0.500000
vt 0.875000 1.000000
vt 0.750000 1.000000
vt 0.625000 1.000000
vt 1.000000 0.375000
vt 1.000000 0.000000
vt 1.000000 0.343750
vt 0.875000 0.343750
vt 0.984375 0.000000
vt 0.984375 0.375000
vt 0.890625 0.375000
vt 0.890625 0.000000
vt 0.875000 0.031250
vt 1.000000 0.031250
vt 0.437500 0.875000
vt 0.437500 1.000000
vt 0.375000 0.875000
vt 0.250000 0.875000
vt 0.312500 0.875000
vt 0.312500 0.656250
vt 0.250000 0.656250
vt 0.500000 0.875000
vt 0.437500 0.656250
vt 0.500000 0.656250
vt 0.375000 0.656250
vt 0.312500 1.000000
s 0
usemtl Character
f 131/1/1 3/2/1 1/3/1 22/4/1
f 137/2/2 4/5/2 2/6/2 139/3/2
f 141/5/3 129/7/3 135/8/3 143/6/3
f 21/9/4 133/10/4 140/11/4 144/5/4
f 142/5/5 138/11/5 24/12/5 23/7/5
f 48/13/2 217/14/2 46/15/2 207/16/2
f 7/17/1 6/18/1 10/19/1 11/20/1
f 8/21/6 149/17/6 151/20/6 12/22/6
f 33/16/4 34/23/4 13/24/4 14/13/4
f 15/25/2 16/26/2 171/27/2 165/28/2
f 175/29/1 19/30/1 17/31/1 38/32/1
f 181/30/2 20/33/2 18/34/2 183/31/2
f 185/33/3 173/35/3 179/24/3 187/34/3
f 37/30/4 177/36/4 184/37/4 188/33/4
f 186/33/5 182/37/5 40/38/5 39/35/5
f 35/16/1 167/39/1 166/40/1 161/15/1
f 221/26/3 43/27/3 45/14/3 223/13/3
f 169/26/3 213/13/3 163/14/3 172/27/3
f 25/21/4 28/17/4 27/41/4 26/42/4
f 32/43/5 29/21/5 30/42/5 31/44/5
f 47/16/1 211/15/1 44/40/1 42/39/1
f 36/13/6 205/16/6 162/15/6 164/14/6
f 209/25/6 215/28/6 219/27/6 41/26/6
f 132/39/6 134/40/6 136/8/6 130/7/6
f 176/45/6 178/46/6 180/24/6 174/35/6
f 170/13/5 168/24/5 206/47/5 214/26/5
f 5/43/3 157/21/3 159/22/3 9/48/3
f 153/1/2 145/43/2 147/48/2 155/4/2
f 197/1/6 199/4/6 203/48/6 201/43/6
f 146/43/5 154/44/5 150/42/5 158/21/5
f 202/43/3 204/48/3 195/22/3 189/21/3
f 218/16/4 220/13/4 216/24/4 212/23/4
f 190/21/2 196/22/2 193/20/2 191/17/2
f 160/21/4 152/42/4 156/41/4 148/17/4
f 192/17/1 194/20/1 200/19/1 198/18/1
f 222/13/5 224/26/5 208/47/5 210/24/5
f 227/49/1 51/50/1 49/51/1 54/52/1
f 233/50/2 52/53/2 50/42/2 235/51/2
f 237/53/3 225/54/3 231/55/3 239/42/3
f 53/50/4 229/56/4 236/57/4 240/53/4
f 238/53/5 234/57/5 56/58/5 55/54/5
f 228/29/6 230/32/6 232/55/6 226/54/6
f 60/59/1 58/18/1 57/19/1 59/60/1
f 61/59/3 62/60/3 63/19/3 64/18/3
f 245/18/5 241/59/5 249/61/5 255/62/5
f 242/59/6 243/60/6 251/63/6 250/64/6
f 247/19/2 246/18/2 256/65/2 253/66/2
f 244/60/4 248/19/4 254/67/4 252/68/4
usemtl Armor
f 305/39/6 66/40/6 381/8/6 353/7/6
f 65/12/5 68/7/5 69/5/5 70/11/5
f 71/11/4 377/5/4 67/9/4 311/10/4
f 293/5/3 354/7/3 382/8/3 72/6/3
f 378/6/2 379/3/2 295/2/2 294/5/2
f 306/1/1 296/2/1 380/3/1 312/4/1
f 271/29/6 74/32/6 365/55/6 327/54/6
f 77/53/5 78/57/5 73/58/5 76/54/5
f 75/50/4 283/56/4 79/57/4 80/53/4
f 285/53/3 328/54/3 366/55/3 367/42/3
f 273/50/2 286/53/2 368/42/2 373/51/2
f 272/49/1 274/50/1 374/51/1 284/52/1
f 343/21/4 375/42/4 83/41/4 301/17/4
f 303/43/5 86/44/5 87/42/5 88/21/5
f 371/43/2 85/1/2 84/4/2 349/48/2
f 304/43/3 339/21/3 81/22/3 302/48/3
f 340/21/6 345/17/6 82/20/6 344/22/6
f 346/17/1 372/18/1 350/19/1 376/20/1
f 89/17/1 90/20/1 355/19/1 92/18/1
f 93/21/2 257/22/2 263/20/2 261/17/2
f 95/43/3 96/48/3 94/22/3 269/21/3
f 359/43/6 91/48/6 259/4/6 315/1/6
f 316/43/5 270/21/5 262/42/5 360/44/5
f 258/21/4 260/17/4 356/41/4 264/42/4
f 291/13/5 98/26/5 99/47/5 341/24/5
f 101/16/4 102/13/4 103/24/4 104/23/4
f 100/25/6 333/28/6 289/27/6 97/26/6
f 347/39/1 369/40/1 334/15/1 342/16/1
f 292/13/3 290/14/3 287/27/3 307/26/3
f 308/16/2 288/15/2 370/14/2 348/13/2
f 105/13/5 106/24/5 313/47/5 357/26/5
f 108/16/6 107/13/6 109/14/6 110/15/6
f 275/13/3 358/26/3 281/27/3 111/14/3
f 314/39/1 277/16/1 112/15/1 279/40/1
f 278/25/2 276/26/2 325/27/2 363/28/2
f 282/16/4 280/23/4 364/24/4 326/13/4
f 113/69/4 114/70/4 361/36/4 383/71/4
f 117/72/2 297/73/2 116/74/2 115/75/2
f 119/76/1 309/69/1 362/77/1 323/78/1
f 118/71/3 120/73/3 321/74/3 384/79/3
f 299/69/6 351/71/6 324/79/6 322/77/6
f 298/71/5 310/36/5 352/80/5 300/73/5
f 121/69/2 122/77/2 265/79/2 317/71/2
f 125/71/3 126/79/3 331/74/3 329/73/3
f 124/76/1 123/78/1 127/77/1 128/69/1
f 319/72/6 267/75/6 337/74/6 335/73/6
f 332/69/4 338/71/4 268/36/4 266/70/4
f 336/71/5 330/73/5 318/80/5 320/36/5
