# Blender 4.4.3
# www.blender.org
mtllib lightning.mtl
o Lightning
v -6.441607 26.436096 1.928138
v -1.945781 29.243309 1.875000
v -6.441607 26.436096 -1.821862
v -1.945781 29.243309 -1.875000
v 0.735456 43.130318 -0.000000
v 4.008104 29.345823 1.432449
v -0.193710 26.237349 1.875000
v -0.193710 26.237349 -1.875000
v 4.008104 29.345823 -1.432449
v 0.361227 15.017929 -1.875000
v -3.882268 11.883627 -1.430632
v 0.361227 15.017929 1.875000
v -3.882268 11.883627 1.430631
v 7.051103 15.847083 -1.898008
v 3.138505 12.720798 -1.898008
v 7.051103 15.847083 1.851991
v 3.138505 12.720798 1.851991
v -0.019171 0.122362 -0.023008
vn -0.0172 0.9999 -0.0000
vn -0.0002 -0.0000 1.0000
vn -0.1074 0.1534 -0.9823
vn -0.0812 0.1487 0.9855
vn 0.9819 -0.1896 -0.0000
vn -0.9187 0.3950 -0.0000
vn -0.0318 -0.9995 -0.0000
vn 0.0320 0.0187 -0.9993
vn 0.0408 0.0238 0.9989
vn -0.0242 -0.0393 0.9989
vn -0.9685 0.2489 -0.0000
vn 0.9691 -0.2467 -0.0000
vn -0.0002 -0.0000 -1.0000
vn 0.1447 -0.1810 -0.9728
vn -0.0322 -0.0289 -0.9991
vn 0.1184 -0.9930 -0.0000
vn -0.1230 0.9924 -0.0000
vn -0.9700 0.2431 -0.0000
vn 0.9120 -0.4101 -0.0000
vn 0.1447 -0.1810 0.9728
vt 0.892265 0.354769
vt 0.980612 0.354769
vt 0.970186 0.494862
vt 0.902691 0.494862
vt 0.294854 0.340997
vt 0.407638 0.390595
vt 0.566492 0.701574
vt 0.452900 0.651326
vt 0.142016 0.312590
vt 0.024163 0.353852
vt 0.275773 0.007705
vt 0.550221 0.353728
vt 0.432362 0.312454
vt 0.298331 0.007705
vt 0.877764 0.339359
vt 0.789417 0.339359
vt 0.833590 0.007705
vt 0.670249 0.433457
vt 0.581902 0.433457
vt 0.627327 0.007705
vt 0.581902 0.812341
vt 0.670246 0.813094
vt 0.670246 0.959953
vt 0.581902 0.959200
vt 0.279444 0.341142
vt 0.166724 0.390743
vt 0.400942 0.718480
vt 0.294854 0.666843
vt 0.685659 0.425601
vt 0.774007 0.425601
vt 0.763538 0.774325
vt 0.696128 0.774325
vt 0.592328 0.448867
vt 0.659823 0.448867
vt 0.670249 0.796931
vt 0.581902 0.796931
vt 0.121400 0.651469
vt 0.007705 0.701639
vt 0.173337 0.718632
vt 0.279444 0.667030
vt 0.035794 0.992241
vt 0.799344 0.678878
vt 0.866753 0.678878
vt 0.877764 0.844983
vt 0.789417 0.844983
vt 0.685659 0.790037
vt 0.774006 0.789735
vt 0.774006 0.948327
vt 0.685659 0.948629
vt 0.789417 0.367412
vt 0.876855 0.354769
vt 0.876855 0.663468
vt 0.685659 0.007705
vt 0.774007 0.007705
vt 0.729833 0.410191
vt 0.538060 0.992295
s 0
usemtl Material.001
f 4/1/1 2/2/1 6/3/1 9/4/1
f 6/5/2 7/6/2 13/7/2 12/8/2
f 4/9/3 3/10/3 5/11/3
f 1/12/4 2/13/4 5/14/4
f 2/15/5 4/16/5 5/17/5
f 3/18/6 1/19/6 5/20/6
f 1/21/7 3/22/7 8/23/7 7/24/7
f 3/10/8 4/9/8 9/25/8 8/26/8
f 2/13/9 1/12/9 7/6/9 6/5/9
f 12/8/10 13/7/10 17/27/10 16/28/10
f 7/29/11 8/30/11 11/31/11 13/32/11
f 9/33/12 6/34/12 12/35/12 10/36/12
f 8/26/13 9/25/13 10/37/13 11/38/13
f 15/39/14 14/40/14 18/41/14
f 11/38/15 10/37/15 14/40/15 15/39/15
f 13/42/16 11/43/16 15/44/16 17/45/16
f 10/46/17 12/47/17 16/48/17 14/49/17
f 17/50/18 15/51/18 18/52/18
f 14/53/19 16/54/19 18/55/19
f 16/28/20 17/27/20 18/56/20
