# Blender v3.0.0 OBJ File: 'models.blend'
# www.blender.org
mtllib nbt_flower_kniphofia.mtl
o Plane.040
v -0.320659 -0.500000 0.320659
v 0.386448 -0.500000 -0.386448
v -0.320659 0.500000 0.320659
v 0.386448 0.500000 -0.386448
v 0.288951 -0.500000 0.288951
v -0.418155 -0.500000 -0.418155
v 0.288951 0.500000 0.288951
v -0.418155 0.500000 -0.418155
v 0.024662 0.153963 -0.121281
v 0.271401 0.153963 -0.168986
v 0.024662 0.458607 -0.121281
v 0.271401 0.458607 -0.168986
v 0.171883 0.153963 -0.021764
v 0.124179 0.153963 -0.268503
v 0.171883 0.458607 -0.021764
v 0.124179 0.458607 -0.268503
v -0.168414 0.296046 0.118549
v 0.081679 0.296046 -0.021522
v -0.168414 0.643529 0.118549
v 0.081679 0.643529 -0.021522
v 0.026668 0.296046 0.173560
v -0.113403 0.296046 -0.076533
v 0.026668 0.643529 0.173560
v -0.113403 0.643529 -0.076533
v 0.051805 0.040754 0.123750
v 0.315057 0.040754 0.237172
v 0.051805 0.388238 0.123750
v 0.315057 0.388238 0.237172
v 0.126720 0.040754 0.312087
v 0.240142 0.040754 0.048835
v 0.126720 0.388238 0.312087
v 0.240142 0.388238 0.048835
v -0.293752 0.165646 -0.240110
v -0.048014 0.165646 -0.092533
v -0.293752 0.513129 -0.240110
v -0.048014 0.513129 -0.092533
v -0.244671 0.165646 -0.043452
v -0.097094 0.165646 -0.289190
v -0.244671 0.513129 -0.043452
v -0.097094 0.513129 -0.289190
v 0.026895 -0.252641 0.110658
v 0.880734 -0.493378 -0.130378
v -0.034941 -0.252641 -0.108387
v 0.818899 -0.493378 -0.349423
v 0.265821 -0.163149 0.043210
v 0.489749 -0.161807 -0.020004
v 0.692741 -0.283517 -0.077308
v 0.630905 -0.283517 -0.296353
v 0.427913 -0.161807 -0.239049
v 0.203985 -0.163149 -0.175835
v 0.108211 -0.252641 0.035481
v 0.353501 -0.493378 -0.817147
v -0.110523 -0.252641 -0.027446
v 0.134766 -0.493378 -0.880074
v 0.176850 -0.163149 -0.203106
v 0.241179 -0.161807 -0.426716
v 0.299494 -0.283517 -0.629420
v 0.080760 -0.283517 -0.692347
v 0.022445 -0.161807 -0.489643
v -0.041885 -0.163149 -0.266033
v 0.091512 -0.252641 -0.067780
v -0.462366 -0.493378 -0.760861
v -0.086292 -0.252641 0.074312
v -0.640170 -0.493378 -0.618768
v -0.063477 -0.163149 -0.261722
v -0.208737 -0.161807 -0.443489
v -0.340416 -0.283517 -0.608262
v -0.518220 -0.283517 -0.466170
v -0.386541 -0.161807 -0.301397
v -0.241281 -0.163149 -0.119630
v -0.000579 -0.252641 -0.113878
v -0.887013 -0.493378 -0.076801
v 0.008933 -0.252641 0.113529
v -0.877502 -0.493378 0.150606
v -0.248626 -0.163149 -0.103503
v -0.481102 -0.161807 -0.093779
v -0.691843 -0.283517 -0.084965
v -0.682332 -0.283517 0.142443
v -0.471591 -0.161807 0.133628
v -0.239114 -0.163149 0.123904
v -0.087211 -0.252641 -0.073232
v -0.632413 -0.493378 0.626694
v 0.092349 -0.252641 0.066635
v -0.452853 -0.493378 0.766561
v -0.239772 -0.163149 0.122625
v -0.382757 -0.161807 0.306188
v -0.512374 -0.283517 0.472588
v -0.332814 -0.283517 0.612455
v -0.203197 -0.161807 0.446055
v -0.060213 -0.163149 0.262492
v -0.108668 -0.252641 0.034057
v 0.187560 -0.493378 0.870352
v 0.105876 -0.252641 -0.041938
v 0.402104 -0.493378 0.794357
v -0.025776 -0.163149 0.268074
v 0.051913 -0.161807 0.487400
v 0.122338 -0.283517 0.686221
v 0.336883 -0.283517 0.610226
v 0.266457 -0.161807 0.411406
v 0.188769 -0.163149 0.192079
v -0.048426 -0.252641 0.103070
v 0.767879 -0.493378 0.450613
v 0.040733 -0.252641 -0.106346
v 0.857039 -0.493378 0.241197
v 0.179997 -0.163149 0.200322
v 0.394082 -0.161807 0.291468
v 0.588150 -0.283517 0.374093
v 0.677309 -0.283517 0.164677
v 0.483241 -0.161807 0.082052
v 0.269156 -0.163149 -0.009094
vt 0.000000 0.000000
vt 0.500000 0.000000
vt 0.500000 1.000000
vt 0.000000 1.000000
vt 0.000000 0.000000
vt 0.500000 0.000000
vt 0.500000 1.000000
vt 0.000000 1.000000
vt 0.515891 0.416116
vt 0.696999 0.416116
vt 0.696999 0.958884
vt 0.515891 0.958884
vt 0.515891 0.416116
vt 0.696999 0.416116
vt 0.696999 0.958884
vt 0.515891 0.958884
vt 0.515891 0.416116
vt 0.696999 0.416116
vt 0.696999 0.958884
vt 0.515891 0.958884
vt 0.515891 0.416116
vt 0.696999 0.416116
vt 0.696999 0.958884
vt 0.515891 0.958884
vt 0.515891 0.416116
vt 0.696999 0.416116
vt 0.696999 0.958884
vt 0.515891 0.958884
vt 0.515891 0.416116
vt 0.696999 0.416116
vt 0.696999 0.958884
vt 0.515891 0.958884
vt 0.515891 0.416116
vt 0.696999 0.416116
vt 0.696999 0.958884
vt 0.515891 0.958884
vt 0.515891 0.416116
vt 0.696999 0.416116
vt 0.696999 0.958884
vt 0.515891 0.958884
vt 0.858202 0.033737
vt 0.976733 0.033737
vt 0.976733 0.308980
vt 0.858202 0.308980
vt 0.502607 0.033737
vt 0.621138 0.033737
vt 0.621138 0.308980
vt 0.502607 0.308980
vt 0.739670 0.033737
vt 0.739670 0.308980
vt 0.858202 0.033737
vt 0.976733 0.033737
vt 0.976733 0.308980
vt 0.858202 0.308980
vt 0.502607 0.033737
vt 0.621138 0.033737
vt 0.621138 0.308980
vt 0.502607 0.308980
vt 0.739670 0.033737
vt 0.739670 0.308980
vt 0.858202 0.033737
vt 0.976733 0.033737
vt 0.976733 0.308980
vt 0.858202 0.308980
vt 0.502607 0.033737
vt 0.621138 0.033737
vt 0.621138 0.308980
vt 0.502607 0.308980
vt 0.739670 0.033737
vt 0.739670 0.308980
vt 0.858202 0.033737
vt 0.976733 0.033737
vt 0.976733 0.308980
vt 0.858202 0.308980
vt 0.502607 0.033737
vt 0.621138 0.033737
vt 0.621138 0.308980
vt 0.502607 0.308980
vt 0.739670 0.033737
vt 0.739670 0.308980
vt 0.858202 0.033737
vt 0.976733 0.033737
vt 0.976733 0.308980
vt 0.858202 0.308980
vt 0.502607 0.033737
vt 0.621138 0.033737
vt 0.621138 0.308980
vt 0.502607 0.308980
vt 0.739670 0.033737
vt 0.739670 0.308980
vt 0.858202 0.033737
vt 0.976733 0.033737
vt 0.976733 0.308980
vt 0.858202 0.308980
vt 0.502607 0.033737
vt 0.621138 0.033737
vt 0.621138 0.308980
vt 0.502607 0.308980
vt 0.739670 0.033737
vt 0.739670 0.308980
vt 0.858202 0.033737
vt 0.976733 0.033737
vt 0.976733 0.308980
vt 0.858202 0.308980
vt 0.502607 0.033737
vt 0.621138 0.033737
vt 0.621138 0.308980
vt 0.502607 0.308980
vt 0.739670 0.033737
vt 0.739670 0.308980
vn 0.7071 0.0000 0.7071
vn 0.7071 0.0000 -0.7071
vn 0.1898 0.0000 0.9818
vn 0.9818 0.0000 -0.1898
vn 0.4887 0.0000 0.8725
vn 0.8725 0.0000 -0.4887
vn -0.3957 0.0000 0.9184
vn 0.9184 0.0000 0.3957
vn -0.5148 0.0000 0.8573
vn 0.8573 0.0000 0.5148
vn 0.7044 0.6813 -0.1989
vn -0.3264 0.9407 0.0921
vn -0.0055 1.0000 0.0016
vn 0.4810 0.8661 -0.1358
vn 0.2024 0.6813 -0.7034
vn -0.0938 0.9407 0.3259
vn -0.0016 1.0000 0.0055
vn 0.1382 0.8661 -0.4803
vn -0.4570 0.6813 -0.5718
vn 0.2117 0.9407 0.2649
vn 0.0036 1.0000 0.0045
vn -0.3120 0.8661 -0.3904
vn -0.7313 0.6813 0.0306
vn 0.3388 0.9407 -0.0142
vn 0.0058 1.0000 -0.0002
vn -0.4994 0.8661 0.0209
vn -0.4498 0.6813 0.5775
vn 0.2084 0.9407 -0.2675
vn 0.0035 1.0000 -0.0045
vn -0.3071 0.8661 0.3943
vn 0.2444 0.6813 0.6900
vn -0.1132 0.9407 -0.3197
vn -0.0019 1.0000 -0.0054
vn 0.1669 0.8661 0.4711
vn 0.6735 0.6813 0.2867
vn -0.3120 0.9407 -0.1328
vn -0.0053 1.0000 -0.0023
vn 0.4598 0.8661 0.1958
g Plane.040_Plane.040_Material.074
usemtl Material.074
s off
f 1/1/1 2/2/1 4/3/1 3/4/1
f 5/5/2 6/6/2 8/7/2 7/8/2
f 9/9/3 10/10/3 12/11/3 11/12/3
f 13/13/4 14/14/4 16/15/4 15/16/4
f 17/17/5 18/18/5 20/19/5 19/20/5
f 21/21/6 22/22/6 24/23/6 23/24/6
f 25/25/7 26/26/7 28/27/7 27/28/7
f 29/29/8 30/30/8 32/31/8 31/32/8
f 33/33/9 34/34/9 36/35/9 35/36/9
f 37/37/10 38/38/10 40/39/10 39/40/10
f 47/41/11 42/42/11 44/43/11 48/44/11
f 41/45/12 45/46/12 50/47/12 43/48/12
f 45/46/13 46/49/13 49/50/13 50/47/13
f 46/49/14 47/41/14 48/44/14 49/50/14
f 57/51/15 52/52/15 54/53/15 58/54/15
f 51/55/16 55/56/16 60/57/16 53/58/16
f 55/56/17 56/59/17 59/60/17 60/57/17
f 56/59/18 57/51/18 58/54/18 59/60/18
f 67/61/19 62/62/19 64/63/19 68/64/19
f 61/65/20 65/66/20 70/67/20 63/68/20
f 65/66/21 66/69/21 69/70/21 70/67/21
f 66/69/22 67/61/22 68/64/22 69/70/22
f 77/71/23 72/72/23 74/73/23 78/74/23
f 71/75/24 75/76/24 80/77/24 73/78/24
f 75/76/25 76/79/25 79/80/25 80/77/25
f 76/79/26 77/71/26 78/74/26 79/80/26
f 87/81/27 82/82/27 84/83/27 88/84/27
f 81/85/28 85/86/28 90/87/28 83/88/28
f 85/86/29 86/89/29 89/90/29 90/87/29
f 86/89/30 87/81/30 88/84/30 89/90/30
f 97/91/31 92/92/31 94/93/31 98/94/31
f 91/95/32 95/96/32 100/97/32 93/98/32
f 95/96/33 96/99/33 99/100/33 100/97/33
f 96/99/34 97/91/34 98/94/34 99/100/34
f 107/101/35 102/102/35 104/103/35 108/104/35
f 101/105/36 105/106/36 110/107/36 103/108/36
f 105/106/37 106/109/37 109/110/37 110/107/37
f 106/109/38 107/101/38 108/104/38 109/110/38
