# Blender v3.0.0 OBJ File: 'models.blend'
# www.blender.org
mtllib nbt_flower_bubble.mtl
o Plane.038
v -0.322712 -0.546883 0.112221
v 0.332985 -0.454108 -0.303271
v -0.546781 0.423585 0.201575
v 0.416003 0.191377 0.034943
v -0.302680 -0.501068 -0.335140
v 0.242704 -0.454108 0.054301
v -0.526750 0.469400 -0.245786
v 0.325406 0.151772 0.390234
v -0.179873 0.647862 -0.015566
v -0.186952 0.489754 -0.048219
v -0.231703 0.619133 0.134777
v -0.238782 0.461025 0.102123
v -0.332772 0.664920 -0.065017
v -0.339851 0.506813 -0.097671
v -0.384602 0.636191 0.085325
v -0.391681 0.478083 0.052672
v 0.087636 0.251472 -0.038164
v -0.187676 0.536789 -0.127406
v 0.036394 -0.433680 -0.216760
v -0.197369 0.511027 0.128080
v 0.026701 -0.459441 0.038726
v -0.017706 0.219306 0.282161
v -0.104572 -0.454108 -0.061312
v -0.469403 0.397713 -0.032181
v -0.114288 0.379494 -0.004472
v -0.457266 0.746451 0.041578
v -0.102151 0.728232 0.069287
v -0.307276 0.352355 0.155597
v -0.276414 0.424851 -0.192250
v -0.295139 0.701094 0.229356
v -0.264278 0.773590 -0.118492
v 0.315766 0.223807 0.084783
v 0.268861 0.112122 0.105606
v 0.291457 0.255680 0.200974
v 0.244553 0.143995 0.221798
v 0.204787 0.264029 0.050531
v 0.157883 0.152344 0.071355
v 0.180478 0.295902 0.166722
v 0.133574 0.184217 0.187546
v 0.048254 0.130488 0.152472
v 0.299876 0.029831 0.164436
v 0.149463 0.378193 0.107893
v 0.401086 0.277537 0.119856
v 0.176874 0.103066 0.292113
v 0.171256 0.057252 0.024796
v 0.278083 0.350772 0.247533
v 0.272466 0.304958 -0.019784
v 0.307726 -0.531941 -0.073297
v -0.125982 -0.504012 0.173920
v 0.242704 -0.189447 0.054301
v -0.104572 -0.193451 -0.061312
v 0.332985 -0.193451 -0.303271
v 0.217717 -0.567628 0.282580
v -0.020054 -0.467928 -0.145819
v 0.164975 -0.454108 0.006021
v 0.074694 -0.454108 0.363593
v -0.167265 -0.454108 -0.073964
v 0.074694 -0.189447 0.363593
v -0.167265 -0.189447 -0.073964
v 0.164975 -0.193451 0.006021
v -0.185098 -0.454108 0.199603
v -0.185098 -0.193451 0.199603
v 0.050120 -0.454108 -0.293969
v 0.050120 -0.189447 -0.293969
vt 0.262919 0.264661
vt 0.525838 0.264661
vt 0.525838 1.000000
vt 0.262919 1.000000
vt 0.564027 0.068592
vt 0.715181 0.068592
vt 0.715181 0.370900
vt 0.564027 0.370900
vt 0.595203 0.130693
vt 0.682621 0.130693
vt 0.682621 0.305528
vt 0.595203 0.305528
vt 0.596558 0.630537
vt 0.596558 0.870441
vt 0.716510 0.870441
vt 0.716510 0.630537
vt 0.716510 0.630537
vt 0.716510 0.870441
vt 0.596558 0.630537
vt 0.596558 0.870441
vt 0.262919 1.000000
vt 0.000000 1.000000
vt 0.000000 0.000000
vt 0.262919 0.000000
vt 0.000000 0.000000
vt 0.262919 0.000000
vt 0.262919 1.000000
vt 0.000000 1.000000
vt 0.525838 0.260657
vt 0.262919 0.260657
vt 0.262919 0.000000
vt 0.525838 0.000000
vt 0.751250 0.002871
vt 0.999536 0.002871
vt 0.999536 0.499445
vt 0.751250 0.499445
vt 0.751250 0.002871
vt 0.999536 0.002871
vt 0.999536 0.499445
vt 0.751250 0.499445
vt 0.564027 0.068592
vt 0.715181 0.068592
vt 0.715181 0.370900
vt 0.564027 0.370900
vt 0.595203 0.130693
vt 0.682621 0.130693
vt 0.682621 0.305528
vt 0.595203 0.305528
vt 0.596558 0.630537
vt 0.596558 0.870441
vt 0.716510 0.870441
vt 0.716510 0.630537
vt 0.716510 0.630537
vt 0.716510 0.870441
vt 0.596558 0.630537
vt 0.596558 0.870441
vt 0.751250 0.002871
vt 0.999536 0.002871
vt 0.999536 0.499445
vt 0.751250 0.499445
vt 0.751250 0.002871
vt 0.999536 0.002871
vt 0.999536 0.499445
vt 0.751250 0.499445
vt 0.525838 1.000000
vt 0.262919 1.000000
vt 0.262919 0.260657
vt 0.525838 0.260657
vt 0.316570 0.000000
vt 0.525838 0.000000
vt 0.525838 0.264661
vt 0.316570 0.264661
vt 0.262919 0.000000
vt 0.525838 0.000000
vt 0.525838 0.264661
vt 0.262919 0.264661
vt 0.525838 0.260657
vt 0.315487 0.260657
vt 0.315487 0.000000
vt 0.525838 0.000000
vn -0.8674 0.0559 0.4944
vn 0.0438 0.9784 0.2021
vn -0.0438 -0.9784 -0.2021
vn -0.3207 -0.1778 0.9303
vn 0.9462 -0.1056 0.3060
vn 0.3207 0.1778 -0.9303
vn -0.9462 0.1056 -0.3060
vn 0.6588 0.0833 0.7477
vn -0.7182 -0.2264 0.6580
vn 0.4839 -0.0000 0.8751
vn -0.0865 -0.2033 0.9753
vn 0.9957 -0.0511 0.0777
vn 0.3816 0.9087 -0.1694
vn -0.3816 -0.9087 0.1694
vn -0.1978 0.2593 0.9453
vn 0.9029 -0.3272 0.2787
vn 0.1978 -0.2593 -0.9453
vn -0.9029 0.3272 -0.2787
vn 0.0207 0.1689 0.9854
vn 0.9276 -0.3711 0.0441
vn 0.4755 -0.1994 0.8568
vn -0.8751 -0.0000 0.4839
g Plane.038_Plane.038_Material.072
usemtl Material.072
s off
f 54/1/1 53/2/1 8/3/1 17/4/1
f 9/5/2 13/6/2 15/7/2 11/8/2
f 14/9/3 10/10/3 12/11/3 16/12/3
f 12/13/4 11/14/4 15/15/4 16/16/4
f 10/17/5 9/18/5 11/14/5 12/13/5
f 14/19/6 13/20/6 9/18/6 10/17/6
f 16/16/7 15/15/7 13/20/7 14/19/7
f 18/21/8 3/22/8 1/23/8 19/24/8
f 5/25/9 21/26/9 20/27/9 7/28/9
f 52/29/10 51/30/10 23/31/10 2/32/10
f 24/33/11 25/34/11 27/35/11 26/36/11
f 28/37/12 29/38/12 31/39/12 30/40/12
f 32/41/13 36/42/13 38/43/13 34/44/13
f 37/45/14 33/46/14 35/47/14 39/48/14
f 35/49/15 34/50/15 38/51/15 39/52/15
f 33/53/16 32/54/16 34/50/16 35/49/16
f 37/55/17 36/56/17 32/54/17 33/53/17
f 39/52/18 38/51/18 36/56/18 37/55/18
f 40/57/19 41/58/19 43/59/19 42/60/19
f 44/61/20 45/62/20 47/63/20 46/64/20
f 4/65/21 22/66/21 49/67/21 48/68/21
f 63/69/22 6/70/22 50/71/22 64/72/22
f 57/73/22 56/74/22 58/75/22 59/76/22
f 60/77/10 62/78/10 61/79/10 55/80/10
