# Blender v3.0.0 OBJ File: 'models.blend'
# www.blender.org
mtllib nbt_flower_rafflesia.mtl
o Cube.081_Cube.098
v -0.261197 -0.499229 0.136941
v -0.143633 -0.065513 -0.143100
v 0.261417 -0.499229 0.136941
v 0.143852 -0.065513 -0.143100
v -0.261197 -0.123213 0.499898
v -0.143633 0.141330 0.056559
v 0.261417 -0.123213 0.499898
v 0.143852 0.141330 0.056559
v 0.382570 -0.014672 -0.073399
v 0.298493 -0.106708 -0.040836
v 0.172411 0.304813 0.179093
v 0.088335 0.212777 0.211656
v 0.492522 0.044790 -0.052892
v 0.282364 0.364275 0.199601
v 0.573023 0.051019 0.000770
v 0.362865 0.370504 0.253262
v 0.610328 0.027305 0.053195
v 0.400170 0.346790 0.305687
v -0.261197 -0.182203 -0.191490
v 0.261417 -0.182203 -0.191490
v 0.261417 0.193812 0.171467
v -0.261197 0.193812 0.171467
v -0.201786 -0.125901 -0.164273
v 0.202006 -0.125901 -0.164273
v -0.201786 0.164622 0.116162
v 0.202006 0.164622 0.116162
v 0.186119 0.271729 0.203056
v 0.198341 0.143491 0.200675
v -0.266542 0.257279 0.133209
v -0.254320 0.129041 0.130828
v 0.170136 0.378533 0.269261
v -0.282525 0.364082 0.199415
v 0.158434 0.419423 0.356381
v -0.294227 0.404973 0.286534
v 0.153011 0.411772 0.424311
v -0.299650 0.397322 0.354464
v -0.248557 0.240907 0.173304
v -0.156606 0.163913 0.220388
v -0.357946 -0.050023 -0.163421
v -0.265994 -0.127016 -0.116337
v -0.368808 0.280695 0.174822
v -0.478197 -0.010235 -0.161903
v -0.456849 0.272521 0.214580
v -0.566237 -0.018409 -0.122145
v -0.497648 0.242132 0.260562
v -0.607037 -0.048798 -0.076163
v -0.337883 -0.107939 -0.163427
v -0.298276 -0.106703 -0.040831
v 0.076764 -0.217353 -0.324940
v 0.116371 -0.216118 -0.202344
v -0.389679 -0.170455 -0.260661
v 0.024967 -0.279869 -0.422174
v -0.427602 -0.253531 -0.293204
v -0.012956 -0.362945 -0.454716
v -0.445176 -0.318630 -0.280727
v -0.030529 -0.428044 -0.442239
v 0.067566 -0.246539 -0.297214
v -0.000777 -0.260025 -0.188829
v 0.383596 0.018384 -0.097389
v 0.315254 0.004898 0.010996
v 0.156941 -0.289803 -0.375865
v 0.472972 -0.024880 -0.176040
v 0.222377 -0.358783 -0.394801
v 0.538408 -0.093860 -0.194976
v 0.252701 -0.417350 -0.376019
v 0.568731 -0.152427 -0.176194
v 0.000110 -0.027032 0.024007
v -0.261197 -0.340716 -0.027275
v 0.261417 -0.340716 -0.027275
v 0.261417 0.035299 0.335683
v -0.261197 0.035299 0.335683
v -0.232635 -0.240909 -0.089546
v 0.232855 -0.240909 -0.089546
v 0.232855 0.094006 0.233738
v -0.232635 0.094006 0.233738
v 0.286729 -0.438184 0.037253
v 0.286729 -0.025745 0.435370
v -0.286510 -0.025745 0.435370
v -0.286510 -0.438184 0.037253
v 0.118996 -0.499977 0.333674
v -0.118776 -0.499977 0.333674
v 0.118996 -0.328903 0.498807
v -0.118776 -0.328903 0.498807
v -0.309122 -0.519217 0.096968
v 0.309341 -0.519217 0.096968
v -0.309121 -0.103180 0.515524
v 0.309341 -0.103180 0.515523
v 0.000110 -0.497273 0.493295
v -0.137926 -0.003200 0.505794
v -0.386676 -0.178449 0.291456
v -0.386676 -0.331011 0.136865
v 0.138146 -0.003200 0.505794
v 0.396843 -0.369883 0.087222
v 0.396843 -0.092694 0.366089
vt 0.996688 0.885989
vt 0.996688 0.992796
vt 0.784524 0.992796
vt 0.784524 0.885989
vt 0.996688 0.885989
vt 0.996688 0.992796
vt 0.784524 0.992796
vt 0.784524 0.885989
vt 0.996688 0.885989
vt 0.996688 0.992796
vt 0.784524 0.992796
vt 0.784524 0.885989
vt 0.996688 0.885989
vt 0.996688 0.992796
vt 0.784524 0.992796
vt 0.784524 0.885989
vt 0.996688 0.565568
vt 0.982617 0.565568
vt 0.982617 0.565568
vt 0.996688 0.565568
vt 0.495586 0.693990
vt 0.495586 1.000000
vt 0.000000 1.000000
vt 0.000000 0.693990
vt 0.000000 0.393131
vt 0.495586 0.393131
vt 0.000000 0.162871
vt 0.495586 0.162871
vt -0.000000 0.000000
vt 0.495586 0.000000
vt 0.882701 0.256660
vt 0.654007 0.255529
vt 0.558718 0.066505
vt 0.977761 0.066505
vt 0.877307 0.257998
vt 0.638319 0.256617
vt 0.537915 0.075905
vt 0.975867 0.076345
vt 0.653930 0.129987
vt 0.884065 0.130949
vt 0.980224 0.304961
vt 0.558541 0.304961
vt 0.651371 0.004439
vt 0.895407 0.005850
vt 0.997731 0.190380
vt 0.550527 0.189930
vt 0.540961 0.591037
vt 0.643036 0.783120
vt 0.540961 0.975203
vt 0.495586 0.693990
vt 0.495586 1.000000
vt 0.000000 1.000000
vt 0.000000 0.693990
vt 0.000000 0.393131
vt 0.495586 0.393131
vt 0.000000 0.162871
vt 0.495586 0.162871
vt -0.000000 0.000000
vt 0.495586 0.000000
vt 0.495586 0.693990
vt 0.495586 1.000000
vt 0.000000 1.000000
vt 0.000000 0.693990
vt 0.000000 0.393131
vt 0.495586 0.393131
vt 0.000000 0.162871
vt 0.495586 0.162871
vt -0.000000 0.000000
vt 0.495586 0.000000
vt 0.495586 0.693990
vt 0.495586 1.000000
vt 0.000000 1.000000
vt 0.000000 0.693990
vt 0.000000 0.393131
vt 0.495586 0.393131
vt 0.000000 0.162871
vt 0.495586 0.162871
vt -0.000000 0.000000
vt 0.495586 0.000000
vt 0.495586 0.693990
vt 0.495586 1.000000
vt 0.000000 1.000000
vt 0.000000 0.693990
vt 0.000000 0.393131
vt 0.495586 0.393131
vt 0.000000 0.162871
vt 0.495586 0.162871
vt -0.000000 0.000000
vt 0.495586 0.000000
vt 0.745112 0.975203
vt 0.745112 0.591037
vt 0.996688 0.672375
vt 0.996688 0.779182
vt 0.784524 0.779182
vt 0.784524 0.672375
vt 0.996688 0.672375
vt 0.996688 0.779182
vt 0.784524 0.779182
vt 0.784524 0.672375
vt 0.996688 0.672375
vt 0.996688 0.779182
vt 0.784524 0.779182
vt 0.784524 0.672375
vt 0.996688 0.672375
vt 0.996688 0.779182
vt 0.784524 0.779182
vt 0.784524 0.672375
vt 0.996688 0.565568
vt 0.784524 0.565568
vt 0.996688 0.565568
vt 0.784524 0.565568
vt 0.996688 0.565568
vt 0.784524 0.565568
vt 0.784524 0.565568
vt 0.551827 0.329704
vt 0.636956 0.576098
vt 0.578036 0.523972
vt 0.546553 0.433503
vt 0.982617 0.565568
vt 0.982617 0.565568
vt 0.996688 0.565568
vt 0.982617 0.565568
vt 0.982617 0.565568
vt 0.996688 0.565568
vt 0.982617 0.565568
vt 0.982617 0.565568
vt 0.996688 0.565568
vt 0.679462 0.336250
vt 0.628971 0.535693
vt 0.555568 0.321048
vt 0.666007 0.326712
vt 0.638816 0.577417
vt 0.554644 0.313809
vt 0.681323 0.337568
vt 0.638973 0.577529
vt 0.554868 0.312546
vt 0.681480 0.337680
vt 0.594173 0.531501
vt 0.556629 0.413217
vt 0.588498 0.541747
vt 0.539592 0.398738
vn -0.7071 -0.5087 -0.4911
vn -0.6585 -0.2207 -0.7195
vn 0.6585 -0.2207 -0.7195
vn 0.7071 -0.5087 -0.4911
vn 0.6585 0.7268 0.1952
vn 0.7071 0.5087 0.4911
vn -0.6585 0.7268 0.1952
vn -0.7071 0.5087 0.4911
vn -0.5983 0.0628 0.7988
vn -0.6028 -0.7969 -0.0397
vn -0.4061 -0.8663 0.2907
vn -0.4090 -0.2878 0.8660
vn -0.3768 0.4090 -0.8311
vn -0.5708 0.2441 -0.7839
vn -0.3659 0.4169 -0.8321
vn 0.1057 0.6584 -0.7452
vn 0.1078 0.6591 -0.7443
vn 0.5526 0.7093 -0.4376
vn 0.5650 0.7073 -0.4247
vn 0.7253 0.6519 -0.2212
vn -0.1894 0.5328 -0.8247
vn 0.1894 0.5328 -0.8247
vn 0.1894 0.8054 -0.5616
vn -0.1894 0.8054 -0.5616
vn -0.1611 0.5603 -0.8124
vn 0.0000 0.6945 -0.7195
vn 0.1611 0.5603 -0.8124
vn 0.1370 0.2882 -0.9477
vn 0.1514 0.0327 -0.9879
vn 0.1360 0.3011 -0.9438
vn 0.0773 0.7506 -0.6562
vn 0.0770 0.7522 -0.6544
vn -0.0050 0.9852 -0.1713
vn -0.0078 0.9881 -0.1537
vn -0.0483 0.9930 0.1080
vn 0.4698 0.5867 -0.6595
vn 0.6723 0.4379 -0.5968
vn 0.4583 0.5935 -0.6616
vn -0.0505 0.7638 -0.6435
vn -0.0528 0.7640 -0.6430
vn -0.5515 0.7114 -0.4355
vn -0.5658 0.7059 -0.4261
vn -0.7531 0.5987 -0.2726
vn 0.1238 0.9397 -0.3188
vn 0.2242 0.9710 -0.0822
vn 0.1182 0.9363 -0.3307
vn -0.1103 0.6681 -0.7358
vn -0.1113 0.6665 -0.7372
vn -0.3095 0.1995 -0.9297
vn -0.3147 0.1823 -0.9315
vn -0.3789 -0.0745 -0.9224
vn -0.3891 0.8037 -0.4501
vn -0.5329 0.8129 -0.2349
vn -0.3808 0.8017 -0.4606
vn -0.0074 0.6078 -0.7940
vn -0.0057 0.6065 -0.7950
vn 0.3733 0.2322 -0.8982
vn 0.3844 0.2180 -0.8970
vn 0.5320 0.0039 -0.8467
vn 0.1611 0.7921 -0.5887
vn -0.1611 0.7921 -0.5887
vn -0.6713 0.7011 0.2402
vn -0.6713 -0.2648 -0.6922
vn 0.6713 0.7011 0.2402
vn 0.6713 -0.2648 -0.6922
vn 0.6028 -0.7969 -0.0397
vn 0.5983 0.0628 0.7988
vn -0.5210 -0.7654 0.3777
vn -0.4183 -0.2938 0.8594
vn -0.8042 -0.4219 0.4186
vn 0.4090 -0.2878 0.8660
vn 0.4061 -0.8663 0.2907
vn 0.0000 -0.7077 0.7065
vn 0.5519 -0.7368 0.3905
vn 0.4774 -0.3224 0.8174
vn 0.0000 0.0968 0.9953
vn 0.7901 -0.4347 0.4321
g Cube.081_Cube.098_Material.075
usemtl Material.075
s 1
f 72/1/1 19/2/2 20/3/3 73/4/4
f 73/5/4 20/6/3 21/7/5 74/8/6
f 74/9/6 21/10/5 22/11/7 75/12/8
f 75/13/8 22/14/7 19/15/2 72/16/1
f 5/17/9 1/18/10 81/19/11 83/20/12
f 9/21/13 10/22/14 12/23/14 11/24/15
f 9/21/13 11/24/15 14/25/16 13/26/17
f 13/26/17 14/25/16 16/27/18 15/28/19
f 15/28/19 16/27/18 18/29/20 17/30/20
f 2/31/21 4/32/22 20/33/3 19/34/2
f 4/35/22 8/36/23 21/37/5 20/38/3
f 8/39/23 6/40/24 22/41/7 21/42/5
f 6/43/24 2/44/21 19/45/2 22/46/7
f 26/47/25 67/48/26 25/49/27
f 27/50/28 28/51/29 30/52/29 29/53/30
f 27/50/28 29/53/30 32/54/31 31/55/32
f 31/55/32 32/54/31 34/56/33 33/57/34
f 33/57/34 34/56/33 36/58/35 35/59/35
f 37/60/36 38/61/37 40/62/37 39/63/38
f 37/60/36 39/63/38 42/64/39 41/65/40
f 41/65/40 42/64/39 44/66/41 43/67/42
f 43/67/42 44/66/41 46/68/43 45/69/43
f 47/70/44 48/71/45 50/72/45 49/73/46
f 47/70/44 49/73/46 52/74/47 51/75/48
f 51/75/48 52/74/47 54/76/49 53/77/50
f 53/77/50 54/76/49 56/78/51 55/79/51
f 57/80/52 58/81/53 60/82/53 59/83/54
f 57/80/52 59/83/54 62/84/55 61/85/56
f 61/85/56 62/84/55 64/86/57 63/87/58
f 63/87/58 64/86/57 66/88/59 65/89/59
f 25/49/27 67/48/26 23/90/60
f 67/48/26 26/47/25 24/91/61
f 23/90/60 67/48/26 24/91/61
f 78/92/8 71/93/62 68/94/63 79/95/1
f 77/96/6 70/97/64 71/98/62 78/99/8
f 76/100/4 69/101/65 70/102/64 77/103/6
f 79/104/1 68/105/63 69/106/65 76/107/4
f 71/93/62 75/13/8 72/16/1 68/94/63
f 70/97/64 74/9/6 75/12/8 71/98/62
f 69/101/65 73/5/4 74/8/6 70/102/64
f 68/105/63 72/1/1 73/4/4 69/106/65
f 1/108/10 79/104/1 76/107/4 3/109/66
f 3/110/66 76/100/4 77/103/6 7/111/67
f 7/112/67 77/96/6 78/99/8 5/113/9
f 5/17/9 78/92/8 79/95/1 1/114/10
f 84/115/68 86/116/69 90/117/70 91/118/70
f 3/110/66 7/119/67 82/120/71 80/121/72
f 1/108/10 3/122/66 80/123/72 81/124/11
f 7/112/67 5/125/9 83/126/12 82/127/71
f 86/116/69 84/115/68 88/128/73
f 85/129/74 87/130/75 88/131/73
f 84/132/68 85/133/74 88/134/73
f 87/135/75 86/136/69 88/137/73
f 86/136/69 87/135/75 92/138/76 89/139/76
f 87/130/75 85/129/74 93/140/77 94/141/77
