# Blender v3.0.0 OBJ File: 'models.blend'
# www.blender.org
mtllib nbt_flower_cone.mtl
o Plane.034
v -0.353553 -0.500000 0.353553
v 0.353553 -0.500000 -0.353553
v -0.353553 0.500000 0.353553
v 0.353553 0.500000 -0.353553
v -0.353553 -0.500000 -0.353553
v 0.353553 -0.500000 0.353553
v -0.353553 0.500000 -0.353553
v 0.353553 0.500000 0.353553
v -0.204705 0.104588 0.204705
v 0.204705 0.104588 0.204705
v -0.204705 0.104588 -0.204705
v 0.204705 0.104588 -0.204705
v 0.000000 0.251553 -0.000000
v -0.035917 0.218269 0.035917
v -0.033284 0.275976 0.033284
v -0.035917 0.218269 -0.035917
v -0.033284 0.275976 -0.033284
v 0.035917 0.218269 0.035917
v 0.033284 0.275976 0.033284
v 0.035917 0.218269 -0.035917
v 0.033284 0.275976 -0.033284
vt 0.000000 0.000000
vt 0.525838 0.000000
vt 0.525838 1.000000
vt 0.000000 1.000000
vt 0.624762 0.452076
vt 0.908767 0.452076
vt 0.766764 0.716549
vt 0.908767 1.000553
vt 0.624762 1.000553
vt 0.860185 0.412607
vt 0.800041 0.286750
vt 0.799996 0.149324
vt 0.861178 0.026884
vt 0.730470 0.145876
vt 0.669676 0.023490
vt 0.730345 0.287535
vt 0.670150 0.412629
vt 0.525838 1.000000
vt 0.000000 1.000000
vt 0.000000 0.000000
vt 0.525838 0.000000
vn -0.7071 -0.0000 0.7071
vn 0.0000 0.8123 0.5832
vn 0.0000 0.8123 -0.5832
vn -0.5832 0.8123 0.0000
vn 0.5832 0.8123 0.0000
vn -0.9990 0.0456 0.0000
vn 0.0000 0.0456 -0.9990
vn 0.9990 0.0456 0.0000
vn 0.0000 0.0456 0.9990
vn 0.0000 1.0000 0.0000
vn 0.7071 -0.0000 0.7071
g Plane.034_Plane.034_Material.068
usemtl Material.068
s off
f 5/1/1 6/2/1 8/3/1 7/4/1
f 9/5/2 10/6/2 13/7/2
f 12/8/3 11/9/3 13/7/3
f 13/7/4 11/9/4 9/5/4
f 13/7/5 10/6/5 12/8/5
f 14/10/6 15/11/6 17/12/6 16/13/6
f 16/13/7 17/12/7 21/14/7 20/15/7
f 20/15/8 21/14/8 19/16/8 18/17/8
f 18/17/9 19/16/9 15/11/9 14/10/9
f 21/14/10 17/12/10 15/11/10 19/16/10
f 4/18/11 3/19/11 1/20/11 2/21/11
