# Blender v3.0.0 OBJ File: 'models.blend'
# www.blender.org
mtllib nbt_flower_tall.mtl
o Plane.037
v -0.321394 -0.500000 0.383022
v 0.321394 -0.500000 -0.383022
v -0.321394 1.450000 0.383022
v 0.321394 1.450000 -0.383022
v 0.383022 -0.500000 0.321394
v -0.383022 -0.500000 -0.321394
v 0.383022 1.450000 0.321394
v -0.383022 1.450000 -0.321394
vt 0.000000 0.000000
vt 1.000000 0.000000
vt 1.000000 1.000000
vt 0.000000 1.000000
vt 0.000000 0.000000
vt 1.000000 0.000000
vt 1.000000 1.000000
vt 0.000000 1.000000
vn 0.7660 0.0000 0.6428
vn 0.6428 0.0000 -0.7660
g Plane.037_Plane.037_Material.071
usemtl Material.071
s off
f 1/1/1 2/2/1 4/3/1 3/4/1
f 5/5/2 6/6/2 8/7/2 7/8/2
