# Blender v3.0.0 OBJ File: 'models.blend'
# www.blender.org
mtllib nbt_flower_ball.mtl
o Plane.036
v -0.353553 -0.500000 0.353553
v 0.353553 -0.500000 -0.353553
v -0.353553 0.500000 0.353553
v 0.353553 0.500000 -0.353553
v -0.353553 -0.500000 -0.353553
v 0.353553 -0.500000 0.353553
v -0.353553 0.500000 -0.353553
v 0.353553 0.500000 0.353553
v 0.105430 0.544364 -0.048249
v 0.092017 0.384392 -0.066787
v 0.063460 0.529876 0.107132
v 0.050047 0.369904 0.088593
v -0.050047 0.562075 -0.088593
v -0.063460 0.402103 -0.107132
v -0.092017 0.547587 0.066787
v -0.105430 0.387615 0.048249
v 0.254583 0.039017 -0.350223
v 0.270515 -0.059754 -0.331813
v 0.279045 0.060910 -0.253938
v 0.294977 -0.037861 -0.235528
v 0.157134 0.028365 -0.323043
v 0.173066 -0.070406 -0.304633
v 0.181596 0.050257 -0.226758
v 0.197529 -0.048514 -0.208348
v 0.189693 -0.050056 0.181620
v 0.228861 0.050612 0.156208
v 0.293512 -0.087712 0.192466
v 0.332680 0.012956 0.167054
v 0.188478 -0.022453 0.289094
v 0.227646 0.078215 0.263682
v 0.292297 -0.060109 0.299939
v 0.331465 0.040559 0.274527
v -0.273190 0.025170 0.305129
v -0.282943 -0.042350 0.291643
v -0.284112 0.040135 0.238103
v -0.293865 -0.027384 0.224616
v -0.205209 0.017888 0.292426
v -0.214962 -0.049632 0.278939
v -0.216131 0.032853 0.225399
v -0.225884 -0.034666 0.211913
v -0.196408 -0.069757 -0.176478
v -0.206790 0.074980 -0.180536
v -0.341051 -0.079938 -0.169558
v -0.351433 0.064799 -0.173616
v -0.203023 -0.074296 -0.321422
v -0.213405 0.070442 -0.325480
v -0.347666 -0.084477 -0.314502
v -0.358048 0.060261 -0.318560
v -0.190915 0.302968 -0.024050
v 0.164678 0.275908 -0.018799
v -0.164678 0.656071 0.018799
v 0.190915 0.629011 0.024050
v -0.017343 0.268271 0.155595
v -0.008894 0.310605 -0.198443
v 0.008894 0.621374 0.198443
v 0.017343 0.663708 -0.155595
vt 0.000000 0.000000
vt 0.525838 0.000000
vt 0.525838 1.000000
vt 0.000000 1.000000
vt 0.564027 0.068592
vt 0.715181 0.068592
vt 0.715181 0.370900
vt 0.564027 0.370900
vt 0.595203 0.130693
vt 0.682621 0.130693
vt 0.682621 0.305528
vt 0.595203 0.305528
vt 0.596558 0.630537
vt 0.596558 0.870441
vt 0.716510 0.870441
vt 0.716510 0.630537
vt 0.716510 0.630537
vt 0.716510 0.870441
vt 0.596558 0.630537
vt 0.596558 0.870441
vt 0.525838 1.000000
vt 0.000000 1.000000
vt 0.000000 0.000000
vt 0.525838 0.000000
vt 0.848732 0.701026
vt 0.932378 0.701026
vt 0.932378 0.868316
vt 0.848732 0.868316
vt 0.865985 0.735391
vt 0.914360 0.735391
vt 0.914360 0.832140
vt 0.865985 0.832140
vt 0.872880 0.691044
vt 0.872880 0.740156
vt 0.848324 0.740156
vt 0.848324 0.691044
vt 0.903098 0.691044
vt 0.903098 0.740156
vt 0.878542 0.740156
vt 0.878542 0.691044
vt 0.933804 0.692509
vt 0.933804 0.741621
vt 0.909248 0.741621
vt 0.909248 0.692509
vt 0.903098 0.691044
vt 0.903098 0.740156
vt 0.878542 0.740156
vt 0.878542 0.691044
vt 0.903098 0.691044
vt 0.903098 0.740156
vt 0.878542 0.740156
vt 0.878542 0.691044
vt 0.933804 0.692509
vt 0.933804 0.741621
vt 0.909248 0.741621
vt 0.909248 0.692509
vt 0.903098 0.691044
vt 0.903098 0.740156
vt 0.878542 0.740156
vt 0.878542 0.691044
vt 0.872880 0.691044
vt 0.872880 0.740156
vt 0.848324 0.740156
vt 0.848324 0.691044
vt 0.865985 0.735391
vt 0.914360 0.735391
vt 0.914360 0.832140
vt 0.865985 0.832140
vt 0.848732 0.701026
vt 0.932378 0.701026
vt 0.932378 0.868316
vt 0.848732 0.868316
vt 0.848732 0.701026
vt 0.932378 0.701026
vt 0.932378 0.868316
vt 0.848732 0.868316
vt 0.865985 0.735391
vt 0.914360 0.735391
vt 0.914360 0.832140
vt 0.865985 0.832140
vt 0.872880 0.691044
vt 0.872880 0.740156
vt 0.848324 0.740156
vt 0.848324 0.691044
vt 0.903098 0.691044
vt 0.903098 0.740156
vt 0.878542 0.740156
vt 0.878542 0.691044
vt 0.933804 0.692509
vt 0.933804 0.741621
vt 0.909248 0.741621
vt 0.909248 0.692509
vt 0.903098 0.691044
vt 0.903098 0.740156
vt 0.878542 0.740156
vt 0.878542 0.691044
vt 0.903098 0.691044
vt 0.903098 0.740156
vt 0.878542 0.740156
vt 0.878542 0.691044
vt 0.933804 0.692509
vt 0.933804 0.741621
vt 0.909248 0.741621
vt 0.909248 0.692509
vt 0.903098 0.691044
vt 0.903098 0.740156
vt 0.878542 0.740156
vt 0.878542 0.691044
vt 0.872880 0.691044
vt 0.872880 0.740156
vt 0.848324 0.740156
vt 0.848324 0.691044
vt 0.865985 0.735391
vt 0.914360 0.735391
vt 0.914360 0.832140
vt 0.865985 0.832140
vt 0.848732 0.701026
vt 0.932378 0.701026
vt 0.932378 0.868316
vt 0.848732 0.868316
vt 0.751250 0.002871
vt 0.999536 0.002871
vt 0.999536 0.499445
vt 0.751250 0.499445
vt 0.751250 0.002871
vt 0.999536 0.002871
vt 0.999536 0.499445
vt 0.751250 0.499445
vn -0.7071 -0.0000 0.7071
vn 0.0830 0.9899 0.1147
vn -0.0830 -0.9899 -0.1147
vn -0.2597 -0.0897 0.9615
vn 0.9621 -0.1096 0.2497
vn 0.2597 0.0897 -0.9615
vn -0.9621 0.1096 -0.2497
vn 0.7071 -0.0000 0.7071
vn -0.1566 0.9709 -0.1810
vn 0.1566 -0.9709 0.1810
vn 0.2405 0.2152 0.9465
vn 0.9579 0.1047 -0.2672
vn -0.2405 -0.2152 -0.9465
vn -0.9579 -0.1047 0.2672
vn 0.0110 -0.2487 -0.9685
vn 0.9356 -0.3393 0.0977
vn -0.0110 0.2487 0.9685
vn -0.9356 0.3393 -0.0977
vn -0.3530 -0.9072 0.2290
vn 0.3530 0.9072 -0.2290
vn 0.1402 0.9709 0.1939
vn -0.1402 -0.9709 -0.1939
vn -0.1571 0.2152 -0.9639
vn -0.9776 0.1047 0.1827
vn 0.1571 -0.2152 0.9639
vn 0.9776 -0.1047 -0.1827
vn 0.0456 0.0313 0.9985
vn -0.9964 -0.0701 0.0477
vn -0.0456 -0.0313 -0.9985
vn 0.9964 0.0701 -0.0477
vn 0.0715 -0.9970 0.0280
vn -0.0715 0.9970 -0.0280
vn -0.0237 -0.1187 0.9926
vn 0.9970 -0.0759 0.0147
g Plane.036_Plane.036_Material.070
usemtl Material.070
s off
f 5/1/1 6/2/1 8/3/1 7/4/1
f 9/5/2 13/6/2 15/7/2 11/8/2
f 14/9/3 10/10/3 12/11/3 16/12/3
f 12/13/4 11/14/4 15/15/4 16/16/4
f 10/17/5 9/18/5 11/14/5 12/13/5
f 14/19/6 13/20/6 9/18/6 10/17/6
f 16/16/7 15/15/7 13/20/7 14/19/7
f 4/21/8 3/22/8 1/23/8 2/24/8
f 17/25/9 21/26/9 23/27/9 19/28/9
f 22/29/10 18/30/10 20/31/10 24/32/10
f 20/33/11 19/34/11 23/35/11 24/36/11
f 18/37/12 17/38/12 19/39/12 20/40/12
f 22/41/13 21/42/13 17/43/13 18/44/13
f 24/45/14 23/46/14 21/47/14 22/48/14
f 25/49/15 26/50/15 28/51/15 27/52/15
f 27/53/16 28/54/16 32/55/16 31/56/16
f 31/57/17 32/58/17 30/59/17 29/60/17
f 29/61/18 30/62/18 26/63/18 25/64/18
f 27/65/19 31/66/19 29/67/19 25/68/19
f 32/69/20 28/70/20 26/71/20 30/72/20
f 33/73/21 37/74/21 39/75/21 35/76/21
f 38/77/22 34/78/22 36/79/22 40/80/22
f 36/81/23 35/82/23 39/83/23 40/84/23
f 34/85/24 33/86/24 35/87/24 36/88/24
f 38/89/25 37/90/25 33/91/25 34/92/25
f 40/93/26 39/94/26 37/95/26 38/96/26
f 41/97/27 42/98/27 44/99/27 43/100/27
f 43/101/28 44/102/28 48/103/28 47/104/28
f 47/105/29 48/106/29 46/107/29 45/108/29
f 45/109/30 46/110/30 42/111/30 41/112/30
f 43/113/31 47/114/31 45/115/31 41/116/31
f 48/117/32 44/118/32 42/119/32 46/120/32
f 49/121/33 50/122/33 52/123/33 51/124/33
f 53/125/34 54/126/34 56/127/34 55/128/34
